<svg xmlns="http://www.w3.org/2000/svg" xmlns:xlink="http://www.w3.org/1999/xlink" viewBox="0 0 176.33 106.83"><defs><style>.cls-1{fill:none;}.cls-2{fill:#fff;}.cls-3{fill:url(#linear-gradient);}</style><linearGradient id="linear-gradient" x1="113.39" y1="57.05" x2="48.69" y2="49.85" gradientUnits="userSpaceOnUse"><stop offset="0" stop-color="#42c5bd"/><stop offset="0.1" stop-color="#3fbcb8"/><stop offset="0.25" stop-color="#38a3ab"/><stop offset="0.45" stop-color="#2c7a94"/><stop offset="0.68" stop-color="#1c4376"/><stop offset="0.85" stop-color="#0f165e"/></linearGradient></defs><title>ZETESENTEROAsset 2</title><g id="Layer_2" data-name="Layer 2"><g id="Layer_1-2" data-name="Layer 1"><path class="cls-1" d="M67.5,53.42h-.42"/><line class="cls-1" x1="67.5" y1="53.42" x2="67.08" y2="53.42"/><path class="cls-2" d="M140.71,66.76v2H112.2V38.08h28v2h-24.9v12H137V54H115.27V66.76Z"/><path class="cls-2" d="M0,66.94,30.44,40.07H.42v-2H34.06V39.9L3.86,66.76H33.94v2H0Z"/><path class="cls-2" d="M107.13,40.07H91.46V68.75H88.38V40.07H72.71v-2h34.42Z"/><path class="cls-2" d="M172.47,43.18a12.56,12.56,0,0,0-2.29-1.45,16.2,16.2,0,0,0-2.71-1,21.55,21.55,0,0,0-3.14-.62,27.35,27.35,0,0,0-3.61-.22q-6.27,0-9.14,1.71a5.14,5.14,0,0,0-2.86,4.59,3.88,3.88,0,0,0,1.3,3.08,9.73,9.73,0,0,0,4.07,1.84q2.76.69,7.17,1.33a69.18,69.18,0,0,1,8,1.62,13.33,13.33,0,0,1,5.21,2.52,5.46,5.46,0,0,1,1.84,4.32,6,6,0,0,1-1.09,3.56,8,8,0,0,1-3.13,2.52,19.5,19.5,0,0,1-4.85,1.51A35,35,0,0,1,161,69a37.9,37.9,0,0,1-6.33-.52A31.82,31.82,0,0,1,149,66.94a24,24,0,0,1-4.94-2.55l1.63-1.77a15.92,15.92,0,0,0,3,1.83,21.75,21.75,0,0,0,3.62,1.36,31.22,31.22,0,0,0,4.19.89,33,33,0,0,0,4.64.32,20.89,20.89,0,0,0,8.77-1.49q3.17-1.48,3.16-4.42a4.11,4.11,0,0,0-1.44-3.27,11.25,11.25,0,0,0-4.46-2.05,74.38,74.38,0,0,0-7.54-1.49A71.14,71.14,0,0,1,152,52.75a11.54,11.54,0,0,1-4.77-2.33,5.14,5.14,0,0,1-1.59-4,6.42,6.42,0,0,1,1.89-4.68,12.07,12.07,0,0,1,5.34-2.91,28.56,28.56,0,0,1,7.9-1,32,32,0,0,1,5.15.39,21.47,21.47,0,0,1,4.4,1.19,18.4,18.4,0,0,1,3.77,2Z"/><path class="cls-2" d="M67.64,66.76v2H39.13V38.08h28v2H42.2v12H64V54H42.2V66.76Z"/><path class="cls-3" d="M116.08,29.61a78.93,78.93,0,0,1-1.52,14.24,105.54,105.54,0,0,1-3.7,13.8c-.76,2.26-1.63,4.47-2.52,6.68s-1.93,4.36-3,6.49A90,90,0,0,1,88.91,94.17,54.51,54.51,0,0,1,77.51,103a33,33,0,0,1-6.76,2.9,21.48,21.48,0,0,1-7.46.85,15,15,0,0,1-5.74-1.59l-.68-.32c-.21-.12-.42-.26-.63-.39-.42-.28-.85-.53-1.25-.82a18.87,18.87,0,0,1-2.18-2A23.76,23.76,0,0,1,47.42,91.6a44.77,44.77,0,0,1-1.56-11.1,71,71,0,0,1,.25-7.44A76.84,76.84,0,0,0,49.44,91a33.42,33.42,0,0,0,5.13,9,16.62,16.62,0,0,0,1.91,1.65c.35.24.72.44,1.07.66.18.1.35.22.54.32l.57.25A12.58,12.58,0,0,0,63.48,104a18.83,18.83,0,0,0,6.42-.9A29.84,29.84,0,0,0,76,100.36a51.33,51.33,0,0,0,10.51-8.59A94.68,94.68,0,0,0,102,69.15a110.56,110.56,0,0,0,9.23-26,77.41,77.41,0,0,0,1.68-13.63,45.77,45.77,0,0,0-1.37-13.49,25.5,25.5,0,0,0-2.47-6.19,16.49,16.49,0,0,0-4.23-4.93A14.55,14.55,0,0,0,92.43,2.62,30.41,30.41,0,0,0,87.93,4a31.75,31.75,0,0,0-7.67,4.57c-4.72,3.65-11.64,9-18,18.67-2.63,4-4,6.94-4,6.92a72.78,72.78,0,0,1,7.4-12.44c1.58-2.19,2.88-3.78,3.48-4.49a63.23,63.23,0,0,1,10.09-10A35,35,0,0,1,92,.64,18.67,18.67,0,0,1,99.34.19a15.5,15.5,0,0,1,7,2.82,19,19,0,0,1,5,5.53,28,28,0,0,1,2.93,6.75A47.71,47.71,0,0,1,116.08,29.61Z"/></g></g></svg>